<svg id="Layer_1" data-name="Layer 1" xmlns="http://www.w3.org/2000/svg" viewBox="0 0 612.94 201"><defs><style>.cls-1{fill:#18a87c;}</style></defs><title>Full-Logo-&amp;amp;Fresh</title><path class="cls-1" d="M445.74,124.07c2,2.29,4.9,3.41,8.93,3.41a32.27,32.27,0,0,0,8.31-1.13l.09,0-.57-9a11.4,11.4,0,0,1-3.42.59c-1.56,0-2.46-.29-3.08-1s-1.12-1.53-1.12-4.8V98.44h8.28V89.75h-8.28V77.56l-11.74,5v7.18h-5.32v8.69h5.32v14.77C443.14,118.86,443.87,121.9,445.74,124.07Z"/><rect class="cls-1" x="417.83" y="71.7" width="11.66" height="54.94"/><path class="cls-1" d="M541.39,89c-4,0-7,1.92-9,5.87l-.07.13h-.56l.08-5.32H520.13v37h11.66V110.25c0-4.68,1.22-7,2-8a7.39,7.39,0,0,1,5.82-2.84,10.38,10.38,0,0,1,4.48.91h.23l.66-10.76A9.31,9.31,0,0,0,541.39,89Z"/><path class="cls-1" d="M588.87,107.06c0-10.81-7.45-18.07-18.53-18.07-13.79,0-20,9.64-20,19.21,0,11.71,7.74,19.28,19.74,19.28,10.43,0,15.5-4.26,17.17-5.66l.26-.22-4.5-5.92a21.36,21.36,0,0,1-11.19,3.48c-5.65,0-9.32-3-9.82-8l0-.28h26.72C588.77,110.22,588.87,108.51,588.87,107.06Zm-26.77-2.64v-.26a8,8,0,0,1,15.93,0v.26Z"/><path class="cls-1" d="M394.64,121.86l.09,4.78h11.21v-37H394.28v19.66c0,5.48-2.39,8.62-6.56,8.62-5.2,0-5.8-4.31-5.8-7.55V89.67H370.26v22.4c0,5.11.8,8.43,2.69,11.11,1.48,1.95,4.52,4.3,10.51,4.3,5,0,9-2.51,10.74-5Z"/><path class="cls-1" d="M497.24,121.86l.09,4.78h11.2v-37H496.87v19.66c0,5.48-2.39,8.62-6.55,8.62-5.2,0-5.8-4.31-5.8-7.55V89.67H472.86v22.4c0,5.11.8,8.43,2.69,11.11,1.48,1.95,4.52,4.3,10.51,4.3,5,0,9-2.51,10.74-5Z"/><path class="cls-1" d="M201.9,127.48a13.66,13.66,0,0,0,10.43-4.6l.5-.51.25,4.27h11.14V105.76c0-5.84-1.31-9.58-4.4-12.51S212.36,89,206,89a36.35,36.35,0,0,0-15.71,3.67l3,7.41a24.43,24.43,0,0,1,11.36-3.22c5.11,0,7.92,2.22,7.92,6.25v1.08l-9.66.39c-13,.57-14.35,8-14.35,11.23C188.55,123.87,195.25,127.48,201.9,127.48Zm4.47-17,6.27-.4v6.49l0,.06a7.75,7.75,0,0,1-6.44,3.55c-3.62,0-5.95-1.92-5.95-4.89S202.45,110.69,206.37,110.53Z"/><path class="cls-1" d="M253.88,98.44c5.56,0,6,4.61,6,8.92v19.28h11.66V104.77C271.57,94,267.3,89,258.14,89a12,12,0,0,0-10.66,6l-.07.12h-.54l.07-5.4H235.28v37H247V108.35C247,101.68,249.21,98.44,253.88,98.44Z"/><path class="cls-1" d="M350,118c-5.88,0-9.67-3.89-9.67-9.91,0-5.74,3.91-9.75,9.52-9.75a15.7,15.7,0,0,1,9.51,3.18l2.52-8.69c-.75-.61-5.12-3.79-13.63-3.79-9.77,0-19.66,6.62-19.66,19.28s9.82,19.21,19.51,19.21c8,0,12.22-2.7,14-4.32l-2.72-8.67A15,15,0,0,1,350,118Z"/><path class="cls-1" d="M320.44,126.64V71.7H308.78V94.81l-.46-.69C308,93.6,304.67,89,296.67,89c-10.28,0-17.46,7.9-17.46,19.21s7.18,19.28,17.46,19.28c5.14,0,9.44-2,12.11-5.6l.05-.06.64-.22-.08,5ZM300.17,118c-5.34,0-9.07-4.1-9.07-10s3.73-10,9.07-10,9,4,9,10S305.54,118,300.17,118Z"/><path class="cls-1" d="M72.79,111a25.63,25.63,0,0,0,23.37,27.66c.73.06,1.46.1,2.19.1a25.69,25.69,0,0,0,22.28-13l5.83,4.73,7.25-8.93c-13.86-11.24-40.29-32.69-41.15-33.4A9.46,9.46,0,0,1,88.92,80,9.14,9.14,0,0,1,105,74.86a9.06,9.06,0,0,1,1.08,1.61l9.73-6.15a20.6,20.6,0,1,0-34,23.1A25.78,25.78,0,0,0,72.79,111Zm11.47,1a14.3,14.3,0,0,1,6.26-10.68l20.93,17a14.1,14.1,0,0,1-27.19-6.31Z"/><path class="cls-1" d="M145.45,145.81c-.61.62-1.19,1.16-1.83,1.76A63.17,63.17,0,0,1,100,164.92c-.73,0-1.46,0-2.2,0-35.22-1.19-62.91-31-61.73-66.54A64.28,64.28,0,0,1,56.35,53.43a63.48,63.48,0,0,1,86.81-.38l10.44-6.6A75.49,75.49,0,0,0,48.12,44.69a76.16,76.16,0,0,0-24,53.25c-1.4,42.11,31.49,77.53,73.33,78.94.87,0,1.74.05,2.61.05a75.1,75.1,0,0,0,51.8-20.62c1-1,2-1.93,2.94-2.94C154.29,153,146,146.23,145.45,145.81Z"/></svg>