<svg id="Layer_1" data-name="Layer 1" xmlns="http://www.w3.org/2000/svg" viewBox="0 0 40 40"><defs><style>.cls-1{fill:#231f20;}</style></defs><title>icon</title><path class="cls-1" d="M11.12,6.48a3.08,3.08,0,0,0-2.32,1,3.28,3.28,0,0,0-1,2.36,3.23,3.23,0,0,0,3.27,3.26,3.23,3.23,0,0,0,3.26-3.26,3.28,3.28,0,0,0-1-2.36A3.07,3.07,0,0,0,11.12,6.48Z"/><rect class="cls-1" x="8.45" y="15.06" width="5.32" height="18.46"/><path class="cls-1" d="M31.16,18.75a7.12,7.12,0,0,0-2.62-2.66,8,8,0,0,0-3.39-.86,7.1,7.1,0,0,0-3.48.69v-.86H16.35V33.52h5.32V21.67a4.51,4.51,0,0,1,1.38-.94,4.66,4.66,0,0,1,1.37-.34,2.52,2.52,0,0,1,1.55.34,1.77,1.77,0,0,1,.64.64,1.72,1.72,0,0,1,.3.91V33.52h5.24V22.28A7,7,0,0,0,31.16,18.75Z"/></svg>