<svg id="Layer_1" data-name="Layer 1" xmlns="http://www.w3.org/2000/svg" viewBox="0 0 40 40"><defs><style>.cls-1{fill:#231f20;}</style></defs><title>icon</title><path class="cls-1" d="M36.43,9.82a13.83,13.83,0,0,1-1.89.61c-.64.16-1.3.3-2,.43a7.48,7.48,0,0,0,1.8-1.61,9.05,9.05,0,0,0,1.23-2.08l-2.13.94a9.4,9.4,0,0,1-2.32.67A5.79,5.79,0,0,0,29,7.17a6.72,6.72,0,0,0-7.48,1.42,6.58,6.58,0,0,0-2,4.83,8.66,8.66,0,0,0,.19,1.51A18,18,0,0,1,12,12.85a20,20,0,0,1-6.11-5A7.18,7.18,0,0,0,5,11.24a6.09,6.09,0,0,0,2.94,5.59,5.93,5.93,0,0,1-3-.76v.1a6.56,6.56,0,0,0,1.51,4.3,6.46,6.46,0,0,0,3.79,2.32,6.15,6.15,0,0,1-.81.15,9.57,9.57,0,0,1-1,0,5.06,5.06,0,0,1-1.14-.19,6.3,6.3,0,0,0,2.28,3.32,6.75,6.75,0,0,0,4,1.42,13.07,13.07,0,0,1-8.33,2.84H3.57A18.37,18.37,0,0,0,8.4,32.59a18.71,18.71,0,0,0,5.49.81,18.55,18.55,0,0,0,8.24-1.75A18.77,18.77,0,0,0,31.79,21,19.93,19.93,0,0,0,33,14.18v-.86a13.16,13.16,0,0,0,1.9-1.65A17,17,0,0,0,36.43,9.82Z"/></svg>