<svg id="Layer_1" data-name="Layer 1" xmlns="http://www.w3.org/2000/svg" viewBox="0 0 40 40"><defs><style>.cls-1{fill:#231f20;}</style></defs><title>icon</title><path class="cls-1" d="M20,4A15.36,15.36,0,0,0,13.7,5.28,16.27,16.27,0,0,0,8.63,8.73,15.83,15.83,0,0,0,4,20,15.84,15.84,0,0,0,5.23,26.2a15.64,15.64,0,0,0,3.4,5.07,16.27,16.27,0,0,0,5.07,3.45A15.36,15.36,0,0,0,20,36a15.36,15.36,0,0,0,6.25-1.28,16.42,16.42,0,0,0,8.52-8.52A15.36,15.36,0,0,0,36,20a15.13,15.13,0,0,0-1.28-6.15A16.42,16.42,0,0,0,26.2,5.28,15.36,15.36,0,0,0,20,4Zm1.38,16.44A22.42,22.42,0,0,0,15,23.79,20.36,20.36,0,0,0,10.2,29a12.56,12.56,0,0,1-3.54-8.37,9,9,0,0,1,.93.05,9.36,9.36,0,0,0,.94,0,34.11,34.11,0,0,0,6.05-.54,34.7,34.7,0,0,0,6-1.63A14.25,14.25,0,0,0,21.33,20.44Zm-2-4.33A31.79,31.79,0,0,1,8.53,18H6.76a13.39,13.39,0,0,1,7.09-9.84A51.34,51.34,0,0,1,19.36,16.11ZM12.17,30.88a19.09,19.09,0,0,1,10-7.88,40.57,40.57,0,0,1,2,9.65,12.68,12.68,0,0,1-4.23.69A13.65,13.65,0,0,1,12.17,30.88Zm17-20.48a30.58,30.58,0,0,1-7.39,4.73,55.65,55.65,0,0,0-5.32-8c.59-.13,1.17-.24,1.73-.34A9.66,9.66,0,0,1,20,6.66a13,13,0,0,1,5,1A14,14,0,0,1,29.21,10.4Zm-5.32,9.35-.44-1.08q-.25-.59-.45-1.08a35.92,35.92,0,0,0,8-5.12,15.83,15.83,0,0,1,1.72,3.59A12.15,12.15,0,0,1,33.34,20c-.92-.2-1.79-.36-2.61-.49a16,16,0,0,0-2.51-.2A23,23,0,0,0,23.89,19.75Zm.89,2.56A21.59,21.59,0,0,1,28.22,22a21.79,21.79,0,0,1,4.83.59,13.9,13.9,0,0,1-2.22,5.17,12.26,12.26,0,0,1-4.09,3.69c-.19-1.57-.44-3.12-.73-4.63A35.06,35.06,0,0,0,24.78,22.31Z"/></svg>