<svg id="Layer_1" data-name="Layer 1" xmlns="http://www.w3.org/2000/svg" viewBox="0 0 40 40"><defs><style>.cls-1{fill:#231f20;}</style></defs><title>icon</title><path class="cls-1" d="M26.13,4.5H13.78a9.11,9.11,0,0,0-9.1,9.1V25.94a9.11,9.11,0,0,0,9.1,9.1H26.13a9.11,9.11,0,0,0,9.1-9.1V13.6A9.11,9.11,0,0,0,26.13,4.5Zm6,21.44a6,6,0,0,1-6,6H13.78a6,6,0,0,1-6-6V13.6a6,6,0,0,1,6-6H26.13a6,6,0,0,1,6,6V25.94Z"/><path class="cls-1" d="M20,11.87a7.9,7.9,0,1,0,7.91,7.9A7.91,7.91,0,0,0,20,11.87ZM20,24.6a4.83,4.83,0,1,1,4.83-4.83A4.82,4.82,0,0,1,20,24.6Z"/><circle class="cls-1" cx="27.87" cy="11.93" r="1.89"/></svg>