<?xml version="1.0" encoding="utf-8"?>
<!-- Generator: Adobe Illustrator 23.0.4, SVG Export Plug-In . SVG Version: 6.00 Build 0)  -->
<svg version="1.1" id="Layer_1" xmlns="http://www.w3.org/2000/svg" xmlns:xlink="http://www.w3.org/1999/xlink" x="0px" y="0px"
	 viewBox="0 0 1920 1080" style="enable-background:new 0 0 1920 1080;" xml:space="preserve">
<g>
	<path fill="#EFF8FA" stroke="#EFF8FA" stroke-width="4" d="M344.65,414c2.69-100.11,56.72-190.01,119.38-264.76c28.64-34.16,59.1-68.31,95.88-93.93
		c35.09-24.44,75.86-39.08,118.84-39.36c19.41-0.13,40.68,0.37,59.19,6.8c18.72,6.51,35.4,19.22,47.21,35.06
		c24.23,32.49,29.35,75.74,26.28,115.08c-2.11,26.99-5.95,53.85-8.1,80.85c-2.29,28.63-3.61,57.36-2.98,86.08
		c0.32,14.25,1.12,28.5,2.54,42.68c1.12,11.18,2.53,22.69,8.02,32.7c9.24,16.82,28.59,23.28,46.89,21.06
		c20.83-2.53,37.44-15.33,50.33-31.26c15.31-18.92,27.53-40.81,39.35-62.01c24.63-44.19,45.74-90.48,75.92-131.35
		c27.44-37.15,62.27-79.13,109.4-89.98c42.12-9.7,85.46,8.44,116.49,36.59c78.39,71.11,67.24,189.81,51.47,284.33
		c-7.48,44.85-18.1,88.74-12.22,134.49c2.91,22.69,7.06,48.41,21.94,66.7c13.25,16.29,34.88,24.6,53.75,32.53
		c23.89,10.05,49.18,16.39,72.66,27.45c17.16,8.08,33.48,17.88,49.38,28.18c20.1,13.01,39.47,26.5,54.93,45.01
		c25.54,30.58,38.38,70.61,34.25,110.33c-1.96,18.9-8.33,36.33-16.35,53.43c-7.22,15.39-15.45,30.35-25.23,44.27
		c-14.97,21.29-34.1,40.26-58.07,51.05c-20.27,9.12-42.87,11.22-64.77,8.34c-50.95-6.72-97.74-35.41-139.94-63.01
		c-45.95-30.05-89.45-63.86-136.49-92.24c-32.96-19.89-74.89-43.44-114.95-34.82c-16.02,3.45-29.17,14.36-40.52,25.66
		c-15.47,15.4-28.77,32.95-41.85,50.37c-28.64,38.13-55.73,79.66-92.73,110.39c-14.54,12.07-31.82,22.81-50.98,24.96
		c-20.64,2.32-39.86-6.54-55.38-19.59c-26.02-21.89-44.23-52.55-59.72-82.35c-11.46-22.05-22.14-44.9-30.79-68.21
		c-6.95-18.73-11.31-38.36-14.63-58.02c-7.59-44.82-9.77-90.4-12.6-135.7c-1.28-20.44-2.58-40.9-4.77-61.26
		c-2.18-20.25-4.04-41.05-9.34-60.76c-4.6-17.09-14.12-34.39-27.41-46.34c-12.3-11.06-29.44-14.77-45.13-18.3
		c-48.58-10.93-102.44-10.54-142.54-44.19c-16.11-13.52-28.23-31.86-30.21-53.18c-2.57-27.62,10.06-53.99,21.77-78.16
		c1.68-3.46-3.5-6.51-5.18-3.03c-11.43,23.59-23.44,48.81-22.89,75.64c0.44,21.33,9.79,40.77,24.59,55.88
		c35.01,35.75,85.47,40.76,132.16,48.79c12.78,2.2,25.51,4.83,37.98,8.42c7.48,2.15,14.95,4.73,21.35,9.27
		c14.85,10.53,25.12,29.65,29.73,46.8c5.56,20.71,7.48,42.64,9.62,63.93c2.14,21.26,3.42,42.59,4.74,63.91
		c2.79,45.16,5.24,90.6,13.29,135.2c8.03,44.48,25.77,85.81,46.81,125.63c15.57,29.46,34.04,59.89,60.14,81.29
		c15.77,12.93,35.02,22.01,55.81,20.58c42.85-2.94,76.28-41.77,101.45-72.65c30.03-36.86,55.21-78.24,88.39-112.45
		c11.44-11.79,24.58-23.48,41.13-26.86c18.44-3.76,37.64,0.62,54.99,6.96c22.32,8.15,43.18,20.15,63.27,32.71
		c23.53,14.71,46.24,30.7,68.96,46.61c45.51,31.86,91.43,65.15,142.79,87.07c42.43,18.11,91.1,27.28,133.71,4.58
		c23.74-12.65,42.39-33.06,57.09-55.27c19.58-29.57,36.52-64.05,39.11-99.86c2.78-38.39-9.87-76.53-33.64-106.61
		c-14.66-18.55-33.07-32.33-52.65-45.27c-16.84-11.13-34.09-21.8-52.25-30.65c-23.61-11.51-49.02-18.05-73.27-27.93
		c-19.99-8.14-44.39-17.03-57.22-35.29c-7.17-10.2-10.95-22.29-13.69-34.33c-3.05-13.43-5.17-27.11-6.07-40.85
		c-3.17-48.02,10.7-95.15,17.26-142.34c7.18-51.58,11.93-104.66,1.82-156.2c-8.83-45.04-30-86.41-66.02-115.6
		c-31.19-25.28-72.11-40.6-112.38-32.32c-46.48,9.56-80.31,48.08-108.24,83.74c-31.84,40.65-53.86,87.19-78.44,132.29
		c-12.16,22.3-24.75,45.05-40.04,65.4c-13.78,18.34-32.54,34.09-56.62,33.97c-10.33-0.05-20.92-3.17-28.39-10.6
		c-9.57-9.52-11.67-23.61-12.98-36.43c-2.96-28.85-3.35-57.91-2.27-86.87c1.07-28.73,3.6-57.38,6.63-85.96
		c2.51-23.66,5.84-47.13,4.46-70.98c-2.19-37.9-14.34-77.48-44-102.96c-14.36-12.33-31.48-20.61-50.14-23.72
		c-19.35-3.22-39.61-4.23-59.18-2.69c-43.31,3.39-83.33,20.76-117.66,46.96c-35.97,27.45-66.45,62.08-94.9,97.04
		c-31.32,38.49-59.57,79.94-80.29,125.16c-19.38,42.3-31.74,87.67-33,134.34C338.55,417.86,344.55,417.86,344.65,414L344.65,414z"/>
</g>
</svg>
