<?xml version="1.0" encoding="utf-8"?>
<!-- Generator: Adobe Illustrator 23.0.4, SVG Export Plug-In . SVG Version: 6.00 Build 0)  -->
<svg version="1.1" id="Layer_1" xmlns="http://www.w3.org/2000/svg" xmlns:xlink="http://www.w3.org/1999/xlink" x="0px" y="0px"
	 viewBox="0 0 168 40" style="enable-background:new 0 0 168 40;" xml:space="preserve">
<style type="text/css">
	.st0{fill:#14A87D;}
</style>
<g>
	<path class="st0" d="M107.15,28.91c0.79,0.91,1.95,1.35,3.55,1.35c1.58,0,2.83-0.33,3.3-0.45l0.04-0.01l-0.23-3.56
		c-0.24,0.08-0.78,0.23-1.36,0.23c-0.62,0-0.98-0.11-1.22-0.4c-0.25-0.28-0.45-0.61-0.45-1.91v-5.44h3.29v-3.45h-3.29v-4.84
		l-4.66,1.99v2.85h-2.11v3.45h2.11v5.87C106.12,26.84,106.41,28.05,107.15,28.91z"/>
	<rect x="96.07" y="8.11" class="st0" width="4.63" height="21.82"/>
	<path class="st0" d="M145.14,14.98c-1.61,0-2.78,0.76-3.59,2.33l-0.03,0.05h-0.22l0.03-2.11h-4.63v14.68h4.63v-6.51
		c0-1.86,0.49-2.78,0.77-3.17c0.41-0.54,1.23-1.13,2.31-1.13c0.81,0,1.46,0.19,1.78,0.36h0.09l0.26-4.28
		C146.39,15.15,145.92,14.98,145.14,14.98z"/>
	<path class="st0" d="M164,22.16c0-4.29-2.96-7.18-7.36-7.18c-5.48,0-7.93,3.83-7.93,7.63c0,4.65,3.08,7.66,7.84,7.66
		c4.14,0,6.16-1.69,6.82-2.25c0.04-0.03,0.07-0.06,0.1-0.09l-1.79-2.35c-0.59,0.39-2.32,1.38-4.45,1.38c-2.25,0-3.7-1.2-3.9-3.2
		l-0.01-0.11h10.61C163.96,23.41,164,22.73,164,22.16z M153.37,21.11l0-0.1c0.07-1.53,1.18-3.08,3.18-3.08c2,0,3.11,1.59,3.15,3.09
		l0,0.1H153.37z"/>
	<path class="st0" d="M86.86,28.04l0.03,1.9h4.45V15.25h-4.63v7.81c0,2.17-0.95,3.42-2.6,3.42c-2.06,0-2.3-1.71-2.3-3v-8.23h-4.63
		v8.9c0,2.03,0.32,3.35,1.07,4.41c0.59,0.78,1.79,1.71,4.18,1.71c1.99,0,3.58-0.99,4.27-1.98L86.86,28.04z"/>
	<path class="st0" d="M127.61,28.04l0.03,1.9h4.45V15.25h-4.63v7.81c0,2.17-0.95,3.42-2.6,3.42c-2.06,0-2.3-1.71-2.3-3v-8.23h-4.63
		v8.9c0,2.03,0.32,3.35,1.07,4.41c0.59,0.78,1.79,1.71,4.18,1.71c1.99,0,3.58-0.99,4.27-1.98L127.61,28.04z"/>
	<path class="st0" d="M10.3,30.27c2.32,0,3.5-1.19,4.14-1.83l0.2-0.2l0.1,1.7h4.43v-8.29c0-2.32-0.52-3.81-1.75-4.97
		c-1.27-1.17-2.96-1.69-5.49-1.69c-2.83,0-5.09,0.89-6.24,1.46l1.19,2.94c0.89-0.54,2.74-1.28,4.51-1.28c2.03,0,3.15,0.88,3.15,2.48
		v0.43l-3.84,0.15C5.56,21.4,5,24.36,5,25.63C5,28.83,7.66,30.27,10.3,30.27z M12.08,23.54l2.49-0.16v2.58l-0.01,0.02
		c-0.29,0.49-1.19,1.41-2.56,1.41c-1.44,0-2.36-0.76-2.36-1.94C9.63,24.3,10.52,23.6,12.08,23.54z"/>
	<path class="st0" d="M30.95,18.74c2.21,0,2.39,1.83,2.39,3.54v7.66h4.63v-8.69c0-4.28-1.7-6.27-5.33-6.27
		c-2.3,0-3.57,1.29-4.23,2.37l-0.03,0.05h-0.22l0.03-2.14h-4.63v14.68h4.63v-7.27C28.2,20.02,29.1,18.74,30.95,18.74z"/>
	<path class="st0" d="M69.14,26.48c-2.33,0-3.84-1.54-3.84-3.93c0-2.28,1.56-3.87,3.78-3.87c0.97,0,2.39,0.22,3.78,1.26l1-3.45
		c-0.3-0.24-2.03-1.5-5.41-1.5c-3.88,0-7.81,2.63-7.81,7.66c0,5.01,3.9,7.63,7.75,7.63c3.19,0,4.85-1.07,5.56-1.71l-1.08-3.45
		C72.46,25.45,71.08,26.48,69.14,26.48z"/>
	<path class="st0" d="M57.39,29.94V8.11h-4.63v9.18l-0.18-0.27c-0.14-0.21-1.45-2.04-4.63-2.04c-4.08,0-6.93,3.14-6.93,7.63
		c0,4.51,2.85,7.66,6.93,7.66c2.04,0,3.75-0.79,4.81-2.22l0.02-0.03l0.25-0.08l-0.03,2H57.39z M49.33,26.51
		c-2.12,0-3.6-1.63-3.6-3.96s1.48-3.96,3.6-3.96c2.14,0,3.57,1.59,3.57,3.96S51.47,26.51,49.33,26.51z"/>
</g>
</svg>
